<svg width="142" height="48" viewBox="0 0 142 48" fill="none" xmlns="http://www.w3.org/2000/svg">
<g clip-path="url(#clip0_195_196)">
<path d="M54.0943 0H0V48H54.0943V0Z" fill="white"/>
<path d="M14.4965 34.7242C15.5607 35.5124 16.2659 36.5811 16.9232 37.7002C17.1413 38.0642 17.3314 38.4443 17.4919 38.8371C17.7927 39.6101 18.4044 40.1128 18.9833 40.6535C19.5686 41.1494 20.2452 41.5262 20.9752 41.7625C21.8169 42.0834 22.684 42.3385 23.5434 42.6114C23.6928 42.6584 23.8497 42.6772 24.006 42.667C25.7444 42.56 27.4677 42.279 29.15 41.8282C29.9862 41.5912 30.7561 41.1641 31.3997 40.5802C31.6694 40.3146 31.8676 39.9853 31.976 39.6227C32.1465 39.0972 32.3448 38.5811 32.5701 38.0766C32.7818 37.6951 33.0174 37.3272 33.2753 36.9752L33.3663 37.0181C33.3385 37.104 33.3132 37.1924 33.2854 37.2707C32.9822 38.0843 32.7843 38.9333 32.6964 39.7971C32.6964 39.9158 32.6964 40.0345 32.6813 40.1558C32.6054 41.2194 33.111 42.0278 33.8339 42.7352C34.1312 42.9891 34.5071 43.1328 34.8981 43.1419C35.9942 43.2929 37.1086 43.058 38.0503 42.4775C38.5247 42.1313 38.9611 41.7358 39.3521 41.2977C39.8728 40.7798 40.3632 40.2417 40.8687 39.7061C40.8983 39.6792 40.9219 39.6465 40.938 39.6099C40.9541 39.5734 40.9624 39.5338 40.9623 39.4939C40.8005 38.6552 40.6412 37.8139 40.4441 36.9827C40.4061 36.8337 40.1913 36.7301 40.0801 36.5937C40.0001 36.4596 39.9276 36.3213 39.8627 36.1794C39.8172 36.1036 39.7236 35.9823 39.6756 35.9924C39.3547 36.0522 39.0406 36.1435 38.7378 36.2653C38.485 36.379 38.1969 36.3992 38.0781 36.2198C38.0414 36.1017 38.0395 35.9755 38.0727 35.8563C38.1059 35.7371 38.1727 35.63 38.2651 35.5478C38.3266 35.507 38.3928 35.4739 38.4623 35.4493C39.0993 35.184 39.7388 34.9314 40.3682 34.6509C40.5549 34.5529 40.7254 34.4268 40.8738 34.2771C41.0886 34.0851 41.665 34.1406 41.7964 34.4008C41.8267 34.4589 41.756 34.6131 41.6877 34.6535C41.5234 34.7823 41.3212 34.8606 41.1594 34.9869C41.037 35.0652 40.9487 35.1867 40.9121 35.3273C40.8756 35.4678 40.8935 35.6169 40.9623 35.7448C41.0507 35.9646 40.9269 36.2703 40.9016 36.5381C40.8825 36.6501 40.8825 36.7646 40.9016 36.8766C41.1955 37.7407 41.3558 38.6446 41.3768 39.5571C41.5993 39.5571 41.7914 39.5823 41.9835 39.5823C42.1963 39.5898 42.4072 39.5395 42.5937 39.4368C42.7802 39.334 42.9353 39.1826 43.0426 38.9987C43.2395 38.7137 43.3757 38.3912 43.4427 38.0514C43.5097 37.7115 43.506 37.3615 43.4319 37.0232C43.3035 36.6796 43.1292 36.355 42.9137 36.0581C42.6609 35.6185 42.3904 35.1891 42.1554 34.7419C42.0637 34.5527 42.0088 34.3478 41.9936 34.1381C41.9562 33.8085 41.9477 33.4763 41.9683 33.1453C42.018 32.7037 41.9572 32.2567 41.7913 31.8444C41.6254 31.4321 41.3596 31.0674 41.0179 30.7832C40.8906 30.67 40.7912 30.5292 40.7272 30.3714C40.6632 30.2137 40.6364 30.0434 40.6488 29.8737C40.6488 29.3053 40.6235 28.7343 40.5957 28.1659C40.5788 27.7303 40.4318 27.3097 40.1736 26.9583C39.8534 26.5277 39.6615 26.0153 39.62 25.4804C39.577 24.9297 39.4026 24.7882 38.8364 24.7225C38.1859 24.6734 37.5407 24.5695 36.9077 24.4118C36.2621 24.1955 35.6404 23.9136 35.0523 23.5705C34.6303 23.3173 34.2304 23.0292 33.8567 22.7091C33.8034 22.6616 33.761 22.6032 33.7327 22.5377C33.7043 22.4723 33.6905 22.4014 33.6924 22.3301C33.7313 22.0118 33.8007 21.6979 33.8997 21.3928C34.0968 20.7891 34.3268 20.1954 34.5265 19.5941C34.6055 19.3924 34.6269 19.1728 34.5886 18.9596C34.5502 18.7465 34.4535 18.5481 34.3092 18.3865C33.8036 17.7827 33.7809 17.0602 33.978 16.3402C34.1056 15.8544 34.116 15.3453 34.0084 14.8547C33.8594 14.0503 33.7984 13.232 33.8264 12.4143C33.9022 10.3933 34.0438 8.37221 34.1752 6.35116C34.2232 5.59326 34.3294 4.85053 34.3875 4.09769C34.4126 3.82252 34.3981 3.54518 34.3446 3.27411C34.2333 2.75116 33.7632 2.592 33.3638 2.95326C31.9963 4.19621 30.6666 5.46442 29.6505 7.03832C28.4018 8.96842 27.0671 10.8278 25.7805 12.7453C25.5148 13.1355 25.3421 13.5813 25.2755 14.0485C25.2089 14.5158 25.2502 14.992 25.3962 15.4408C25.4852 15.7407 25.5958 16.0337 25.7274 16.3175C26.0661 17.0299 25.9802 17.7524 25.788 18.4749C25.7179 18.723 25.6335 18.9667 25.5353 19.2051C25.4787 19.3625 25.3763 19.4994 25.2411 19.598C25.1059 19.6966 24.9442 19.7525 24.7769 19.7583C24.0767 19.8568 23.3665 19.9326 22.7219 20.2636C22.371 20.4788 22.0081 20.6736 21.6349 20.8472C21.2177 20.9864 20.7888 21.0879 20.3533 21.1503C19.7088 21.264 19.1678 20.9305 18.6269 20.6678C17.6378 20.1782 16.8123 19.412 16.2508 18.4623C15.8236 17.7752 15.361 17.1082 14.906 16.4413C14.5369 15.9032 14.1148 15.3954 13.7837 14.832C13.1795 13.8215 12.6234 12.7629 12.0496 11.7246C11.6148 10.9339 11.1674 10.1507 10.7579 9.34484C10.5203 8.87242 10.3484 8.36211 10.1487 7.86948C10.1083 7.776 10.0805 7.67747 10.04 7.58653C9.96421 7.40211 9.83276 7.24042 9.63307 7.28337C9.55314 7.30275 9.47781 7.33772 9.41144 7.38628C9.34507 7.43483 9.28897 7.49602 9.24633 7.56632C8.67694 8.75175 8.26072 10.0048 8.00772 11.2952C7.22771 15.0819 7.31412 18.9958 8.26049 22.7444C8.40458 23.3432 8.56382 23.9394 8.68263 24.5432C8.9354 25.8215 9.5269 26.9684 10.04 28.1482C10.5128 29.2001 11.1732 30.1572 11.989 30.9726C12.6187 31.5986 13.1021 32.3561 13.4045 33.1907C13.6035 33.8012 13.9845 34.3363 14.4965 34.7242ZM29.6631 16.8859C29.4507 17.1025 29.2539 17.3338 29.0741 17.5781C28.9528 17.7272 28.8542 17.8964 28.7253 18.0404C28.5408 18.2451 28.3714 18.24 28.245 17.9949C28.1484 17.8097 28.0949 17.605 28.0883 17.3962C28.0835 16.1134 28.3024 14.8396 28.7354 13.632C29.3238 11.9021 30.1998 10.2836 31.3264 8.84463C31.463 8.69459 31.6109 8.55524 31.7688 8.42779C31.7935 8.47644 31.8114 8.52831 31.8218 8.5819C31.7688 8.88 31.7334 9.18568 31.655 9.47621C31.1747 11.2228 31.0935 13.0549 31.4174 14.8371C31.4896 15.4584 31.5048 16.085 31.4629 16.7091C31.4337 16.9384 31.382 17.1643 31.3087 17.3836L31.0736 17.0501C30.702 16.5044 30.151 16.4362 29.6682 16.8859H29.6631ZM35.5528 27.9057C35.7576 27.4333 35.9598 26.9583 36.1797 26.4909C36.4805 25.8417 37.4259 25.44 38.0755 25.7331C38.3578 25.8877 38.6208 26.0751 38.8591 26.2914C39.5391 27.3625 39.9107 28.3427 39.9284 29.4291C39.9295 29.7143 39.8868 29.998 39.802 30.2703C39.7361 30.5357 39.6025 30.7795 39.4142 30.9778C39.2259 31.1762 38.9894 31.3224 38.7277 31.4021C38.6608 31.4293 38.5869 31.4344 38.5169 31.4167C38.4468 31.399 38.3843 31.3593 38.3384 31.3036C37.4638 30.4118 36.5943 29.5124 35.6969 28.6434C35.5898 28.557 35.5169 28.4353 35.4914 28.3001C35.4659 28.1649 35.4895 28.0251 35.5579 27.9057H35.5528ZM21.5591 31.8467C22.8381 30.9069 26.0509 29.0324 29.4634 30.8362C29.6069 30.9123 29.7208 31.0341 29.787 31.1823C30.1383 31.9756 30.6768 34.1482 29.7162 35.4771C29.6519 35.5665 29.5688 35.6409 29.4727 35.695C29.3767 35.7491 29.27 35.7816 29.1601 35.7903C27.9291 35.8914 23.7633 35.7398 21.4352 32.9457C21.3682 32.8665 21.3183 32.7743 21.2883 32.675C21.2584 32.5757 21.2492 32.4713 21.2613 32.3683C21.2734 32.2653 21.3065 32.1658 21.3586 32.0761C21.4107 31.9864 21.4806 31.9083 21.5641 31.8467H21.5591ZM11.7387 23.6185C11.405 22.8404 11.1624 22.027 10.8237 21.2514C9.86563 19.0459 9.94146 16.7495 10.1361 14.4303L10.2372 14.3672C10.335 14.4523 10.4201 14.551 10.49 14.6602C10.6619 15.0366 10.8186 15.4181 10.9652 15.8097C11.4505 17.088 11.9763 18.336 12.8686 19.4046C13.4129 20.0564 13.9674 20.6981 14.5319 21.3297C14.9869 21.8349 14.949 22.2467 14.3625 22.5701C14.0537 22.7204 13.7921 22.9525 13.6062 23.2412C13.4203 23.5298 13.3173 23.864 13.3084 24.2072C13.315 24.5189 13.3557 24.8289 13.4298 25.1318C13.5118 25.3976 13.5118 25.682 13.4298 25.9478C13.3875 25.9336 13.3468 25.915 13.3084 25.8922C13.2276 25.8189 13.1441 25.7457 13.0708 25.6648C12.5113 25.0662 12.062 24.3734 11.7438 23.6185H11.7387Z" fill="black"/>
<path d="M20.973 27.1427C20.9358 27.6267 20.9699 28.1136 21.0741 28.5877C21.0741 28.6256 21.0261 28.6357 21.0135 28.6004C20.7656 27.7419 20.7612 26.8313 21.0008 25.9705C21.0781 25.7391 21.1181 25.4969 21.1196 25.253C21.1113 25.0622 21.0676 24.8746 20.9907 24.6997C20.8256 24.3247 20.6106 23.9738 20.3516 23.6564C20.656 23.9241 20.9123 24.2419 21.1095 24.5962C21.2894 24.9475 21.3386 25.3513 21.2484 25.7355C21.1928 25.973 21.112 26.2029 21.064 26.4429C21.0172 26.6748 20.9843 26.9094 20.9655 27.1452L20.973 27.1427Z" fill="white"/>
<path d="M20.1154 27.9233C20.051 27.717 20.0431 27.4971 20.0927 27.2867C20.0356 26.9512 20.0696 26.6066 20.1912 26.2888C20.1831 26.2781 20.1774 26.2658 20.1743 26.2528C20.1713 26.2397 20.171 26.2262 20.1735 26.213C20.2005 25.881 20.2987 25.5588 20.4615 25.2682C20.4614 25.2081 20.4563 25.1481 20.4464 25.0888C20.3906 24.7992 20.2891 24.5204 20.1457 24.2627H20.1584C20.3446 24.4279 20.4878 24.6358 20.5759 24.8686C20.6639 25.1014 20.694 25.3521 20.6636 25.5991C20.5926 25.8754 20.5023 26.1464 20.3933 26.4101C20.3731 26.4707 20.3554 26.5313 20.3377 26.592C20.3377 26.784 20.2847 26.9684 20.2645 27.168C20.2645 27.2943 20.2645 27.4206 20.2645 27.5469C20.2313 27.6688 20.2069 27.7929 20.1912 27.9183C20.1912 27.9511 20.1432 27.9562 20.1306 27.9309L20.1154 27.9233Z" fill="#ADACAC"/>
<path d="M29.9363 20.501V20.4859H29.9565V20.4682C29.8766 20.4525 29.8014 20.4188 29.7366 20.3696C29.7335 20.3676 29.7314 20.3645 29.7307 20.3609C29.73 20.3574 29.7308 20.3537 29.7328 20.3507C29.7348 20.3477 29.7379 20.3456 29.7415 20.3449C29.745 20.3442 29.7487 20.3449 29.7517 20.3469C29.9691 20.4454 30.2143 20.3469 30.4443 20.3469C30.5606 20.3469 30.6744 20.3848 30.7906 20.4C30.9069 20.4151 31.0586 20.4 31.1925 20.4151C31.6804 20.4581 31.9686 20.9027 32.2365 21.2614C32.2694 21.3069 32.2112 21.3498 32.1683 21.3246C31.9433 21.1781 31.7411 21.0164 31.5262 20.8572C31.3302 20.7486 31.1081 20.6962 30.8842 20.7056C30.8763 20.7179 30.8659 20.7282 30.8537 20.7361C30.8415 20.7439 30.8278 20.7491 30.8134 20.7511C30.5764 20.7892 30.3336 20.7417 30.1284 20.6172C30.0704 20.6028 30.0178 20.5721 29.9767 20.5288L29.9261 20.4934L29.9363 20.501Z" fill="white"/>
<path d="M26.3245 26.5011C26.1652 26.2661 25.8669 26.1171 25.8063 25.8215C25.7785 25.6901 25.8063 25.5689 25.7886 25.4274C25.7617 25.3022 25.7192 25.1808 25.6622 25.0662C25.4873 24.8261 25.3572 24.5565 25.278 24.2704C25.1329 23.7905 24.9451 23.3247 24.7168 22.8784C24.7168 22.8632 24.7168 22.8506 24.7396 22.8657C24.9901 23.2251 25.2076 23.6065 25.3892 24.0051C25.5078 24.3274 25.6675 24.6331 25.8644 24.9146C25.9768 25.0431 26.1198 25.141 26.2803 25.1993C26.4407 25.2576 26.6133 25.2744 26.782 25.248C27.129 25.2101 27.479 25.2101 27.826 25.248C28.2145 25.3087 28.5853 25.4526 28.9129 25.6699C28.9175 25.6738 28.9205 25.6791 28.9216 25.685C28.9226 25.6909 28.9215 25.6969 28.9184 25.7021C28.9154 25.7072 28.9106 25.7112 28.905 25.7131C28.8994 25.7151 28.8932 25.715 28.8876 25.7129C28.5452 25.5545 28.1787 25.4546 27.8032 25.4173C27.4353 25.4046 27.0671 25.4274 26.7036 25.4855C26.4891 25.513 26.2711 25.4834 26.0717 25.3996V25.4173C26.0696 25.5566 26.0883 25.6954 26.1273 25.8291C26.2121 25.9482 26.305 26.0613 26.4053 26.1676C26.4809 26.277 26.5397 26.3971 26.5798 26.5238C26.6563 26.7707 26.6563 27.0349 26.5798 27.2817C26.5779 27.288 26.5741 27.2935 26.5688 27.2974C26.5636 27.3013 26.5572 27.3034 26.5507 27.3034C26.5442 27.3034 26.5378 27.3013 26.5326 27.2974C26.5273 27.2935 26.5235 27.288 26.5216 27.2817C26.5399 27.009 26.467 26.738 26.3144 26.5112L26.3245 26.5011Z" fill="white"/>
<path d="M30.3299 23.5781C30.1585 23.4458 29.9537 23.3635 29.7384 23.3406C29.4434 23.1708 29.1081 23.0836 28.7677 23.088C28.7523 23.0656 28.7287 23.0502 28.702 23.045C28.38 22.9574 28.0427 22.941 27.7136 22.997C27.6606 22.9743 27.6049 22.949 27.5519 22.9212C27.2972 22.7711 27.0692 22.5799 26.877 22.3553C26.9694 22.5861 27.1167 22.7908 27.3061 22.9519C27.4955 23.113 27.7212 23.2256 27.9639 23.28C28.2486 23.3077 28.535 23.3153 28.8208 23.3027C28.884 23.3027 28.9472 23.3027 29.0104 23.3027C29.1949 23.3608 29.382 23.3785 29.5766 23.429C29.7005 23.4593 29.8142 23.5175 29.9381 23.5478C30.064 23.5581 30.1891 23.5775 30.3122 23.6059C30.3425 23.6185 30.3653 23.5756 30.3425 23.5528L30.3299 23.5781Z" fill="white"/>
<path d="M29.4933 23.5781C29.9622 23.7058 30.4095 23.9025 30.8204 24.1617C30.8533 24.1819 30.8811 24.1339 30.8508 24.1111C30.1281 23.585 29.2728 23.2709 28.3811 23.2042C28.1364 23.1987 27.8941 23.1543 27.6632 23.0728C27.4875 22.9985 27.3265 22.8933 27.188 22.7621C26.893 22.4796 26.6379 22.1584 26.4297 21.8071C26.5765 22.1858 26.7877 22.5362 27.054 22.8429C27.3194 23.1293 27.6775 23.3128 28.0651 23.3608C28.3179 23.3886 28.553 23.3911 28.7931 23.4265C29.0277 23.4621 29.2598 23.5118 29.4883 23.5756L29.4933 23.5781Z" fill="#ADACAC"/>
<path d="M27.4558 18.9348H27.4407V18.955H27.4205C27.4354 18.875 27.4302 18.7925 27.4053 18.715C27.4053 18.6998 27.375 18.715 27.3775 18.715C27.3977 18.9525 27.2133 19.1495 27.1476 19.3668C27.1148 19.4805 27.1047 19.5967 27.0794 19.7129C27.0541 19.8291 26.991 19.9655 26.9581 20.0969C26.8318 20.5693 27.1527 20.9887 27.4002 21.36C27.4306 21.408 27.4912 21.36 27.4811 21.3196C27.4205 21.067 27.3371 20.8144 27.2588 20.5617C27.224 20.34 27.2502 20.1129 27.3346 19.9049C27.3489 19.9019 27.3625 19.8959 27.3742 19.8871C27.386 19.8784 27.3957 19.8672 27.4028 19.8544C27.5183 19.6451 27.5559 19.4016 27.5089 19.1672C27.5141 19.1072 27.5028 19.0469 27.476 18.9929L27.4609 18.9348H27.4558Z" fill="#ADACAC"/>
<path d="M22.3714 23.1258C22.5769 22.8921 22.799 22.6734 23.0358 22.4715C23.2551 22.2409 23.4018 21.9511 23.4577 21.6378C23.4577 21.6176 23.488 21.6227 23.4905 21.6378C23.5205 21.8819 23.4884 22.1295 23.3971 22.3578C23.2572 22.6093 23.0733 22.8335 22.8539 23.0197C22.4523 23.4367 22.2301 23.9945 22.235 24.5734C22.235 24.6669 22.0859 24.7023 22.0657 24.6037C22.0106 24.3493 22.0094 24.0862 22.062 23.8312C22.1147 23.5762 22.22 23.3351 22.3714 23.1233V23.1258Z" fill="white"/>
<path d="M26.4804 26.5617C26.3211 26.3268 26.0254 26.1777 25.9622 25.8796C25.9369 25.7508 25.9622 25.627 25.947 25.4881C25.9193 25.3627 25.876 25.2414 25.8181 25.1268C25.6443 24.8861 25.5142 24.6168 25.4339 24.331C25.2892 23.851 25.1014 23.3851 24.8727 22.939C24.8719 22.9375 24.8714 22.9359 24.8712 22.9342C24.871 22.9325 24.8711 22.9307 24.8716 22.9291C24.8721 22.9275 24.8728 22.9259 24.8739 22.9246C24.875 22.9233 24.8763 22.9221 24.8778 22.9213C24.8793 22.9205 24.8809 22.92 24.8826 22.9198C24.8843 22.9196 24.886 22.9197 24.8877 22.9202C24.8893 22.9206 24.8909 22.9214 24.8922 22.9225C24.8935 22.9236 24.8946 22.9249 24.8955 22.9264C25.1484 23.2842 25.366 23.6658 25.5451 24.0657C25.6642 24.3878 25.8239 24.6935 26.0203 24.9752C26.1329 25.1041 26.2764 25.2023 26.4373 25.2606C26.5982 25.319 26.7714 25.3355 26.9404 25.3087C27.2874 25.2708 27.6374 25.2708 27.9844 25.3087C28.372 25.3699 28.7419 25.5138 29.0688 25.7306C29.0734 25.7344 29.0765 25.7398 29.0775 25.7456C29.0785 25.7515 29.0774 25.7576 29.0744 25.7627C29.0713 25.7679 29.0666 25.7718 29.0609 25.7738C29.0553 25.7758 29.0491 25.7757 29.0435 25.7735C28.7013 25.6148 28.3347 25.5149 27.9591 25.4779C27.5913 25.4653 27.223 25.4882 26.8596 25.5462C26.645 25.5736 26.427 25.544 26.2276 25.4603V25.4779C26.2255 25.6172 26.2442 25.756 26.2832 25.8897C26.3674 26.0085 26.4604 26.1208 26.5613 26.2257C26.6377 26.3359 26.6973 26.4568 26.7382 26.5845C26.8135 26.8315 26.8135 27.0953 26.7382 27.3424C26.7382 27.3504 26.735 27.3581 26.7293 27.3638C26.7236 27.3695 26.7159 27.3727 26.7079 27.3727C26.6998 27.3727 26.6921 27.3695 26.6864 27.3638C26.6807 27.3581 26.6776 27.3504 26.6776 27.3424C26.6972 27.0695 26.6242 26.7981 26.4703 26.5718L26.4804 26.5617Z" fill="#ADACAC"/>
<path d="M22.363 23.5276C22.5195 23.3477 22.6883 23.1788 22.8682 23.0223C23.039 22.8428 23.1532 22.617 23.1966 22.3731C23.1966 22.3579 23.2194 22.3731 23.2219 22.3731C23.2446 22.5632 23.2194 22.756 23.1486 22.9339C23.0404 23.1269 22.8974 23.2983 22.7267 23.4392C22.4149 23.7644 22.2426 24.1987 22.2468 24.6493C22.2468 24.72 22.1305 24.7478 22.1154 24.672C22.0721 24.4741 22.0709 24.2692 22.1118 24.0708C22.1527 23.8724 22.2349 23.6847 22.3529 23.52L22.363 23.5276Z" fill="#ADACAC"/>
<path d="M18.62 29.1537C18.6605 28.9011 18.845 28.6636 18.7793 28.3958C18.7515 28.2771 18.6731 28.1836 18.6403 28.0674C18.6158 27.9537 18.6039 27.8376 18.6049 27.7213C18.6529 27.4582 18.6529 27.1886 18.6049 26.9255C18.5363 26.4775 18.5093 26.0243 18.524 25.5714C18.524 25.5537 18.5038 25.5537 18.5012 25.5714C18.4344 25.9618 18.4039 26.3576 18.4103 26.7537C18.439 27.063 18.4271 27.3747 18.3749 27.6808C18.3323 27.8291 18.253 27.9643 18.1443 28.0738C18.0356 28.1833 17.901 28.2636 17.753 28.3074C17.4543 28.4083 17.1677 28.5422 16.8986 28.7065C16.6066 28.905 16.3602 29.1634 16.1757 29.4644C16.1723 29.4694 16.1711 29.4756 16.1723 29.4815C16.1735 29.4874 16.177 29.4926 16.182 29.496C16.1871 29.4993 16.1932 29.5006 16.1991 29.4994C16.205 29.4982 16.2103 29.4947 16.2136 29.4897C16.427 29.2284 16.6835 29.0054 16.972 28.8303C17.2669 28.6761 17.5769 28.5525 17.8971 28.4615C18.0818 28.3979 18.2477 28.2894 18.3799 28.1457V28.1634C18.4351 28.2757 18.4726 28.3958 18.4911 28.5196C18.469 28.6498 18.4369 28.7782 18.3951 28.9036C18.3774 29.0225 18.3774 29.1434 18.3951 29.2623C18.4267 29.4949 18.528 29.7124 18.6858 29.8863C18.706 29.9065 18.7464 29.8863 18.7287 29.856C18.6079 29.6403 18.5634 29.3902 18.6024 29.1461L18.62 29.1537Z" fill="#ADACAC"/>
<path d="M18.7872 29.2649C18.8327 28.9845 19.04 28.7217 18.9667 28.4262C18.9338 28.2998 18.8479 28.1937 18.8125 28.0649C18.7834 27.9399 18.7706 27.8117 18.7746 27.6834C18.8277 27.3911 18.8277 27.0916 18.7746 26.7992C18.7004 26.3035 18.6716 25.802 18.6886 25.3011C18.6886 25.2834 18.6634 25.2834 18.6608 25.3011C18.5868 25.7324 18.5529 26.1696 18.5597 26.6072C18.5915 26.9501 18.5787 27.2957 18.5218 27.6354C18.4747 27.7997 18.3867 27.9494 18.266 28.0704C18.1453 28.1915 17.9959 28.28 17.8317 28.3276C17.5017 28.4408 17.1847 28.589 16.8863 28.7697C16.5633 28.9923 16.2911 29.2808 16.0876 29.616C16.0856 29.6213 16.0854 29.6271 16.0871 29.6325C16.0888 29.6379 16.0922 29.6426 16.0969 29.6458C16.1015 29.649 16.1071 29.6505 16.1128 29.6502C16.1184 29.6498 16.1238 29.6476 16.128 29.6438C16.3701 29.3546 16.6589 29.1078 16.9824 28.9137C17.3097 28.7453 17.6525 28.6091 18.0061 28.507C18.2108 28.4382 18.3944 28.3182 18.5395 28.1584V28.1761C18.5988 28.302 18.6405 28.4354 18.6634 28.5727C18.639 28.7167 18.6035 28.8586 18.5572 28.9971C18.5382 29.1286 18.5382 29.2622 18.5572 29.3937C18.5931 29.6505 18.7048 29.8906 18.8782 30.0834C18.901 30.1062 18.9465 30.0834 18.9288 30.0506C18.7935 29.8124 18.7428 29.5355 18.7847 29.2649H18.7872Z" fill="white"/>
<path d="M18.9145 23.0981C18.7238 22.9437 18.5455 22.7748 18.3811 22.5928C18.1932 22.429 17.961 22.3244 17.7138 22.2922C17.6986 22.2922 17.7138 22.2694 17.7138 22.2669C17.9036 22.236 18.0981 22.2524 18.28 22.3149C18.4818 22.4158 18.6634 22.5528 18.8159 22.7191C19.1554 23.0191 19.5995 23.1734 20.052 23.1486C20.1253 23.1486 20.1581 23.2623 20.0798 23.28C19.8827 23.332 19.6769 23.342 19.4757 23.3093C19.2745 23.2767 19.0824 23.2021 18.9119 23.0905L18.9145 23.0981Z" fill="#ADACAC"/>
<path d="M27.2569 20.309C27.2985 20.0695 27.3568 19.8331 27.4312 19.6016C27.4822 19.3582 27.4602 19.1051 27.368 18.8741C27.3672 18.8726 27.3667 18.8709 27.3665 18.8692C27.3663 18.8675 27.3664 18.8658 27.3669 18.8642C27.3674 18.8625 27.3681 18.861 27.3692 18.8597C27.3703 18.8583 27.3716 18.8572 27.3731 18.8564C27.3746 18.8555 27.3762 18.855 27.3779 18.8548C27.3796 18.8546 27.3813 18.8548 27.383 18.8552C27.3846 18.8557 27.3861 18.8565 27.3875 18.8576C27.3888 18.8586 27.3899 18.8599 27.3908 18.8614C27.5106 19.012 27.5913 19.19 27.6257 19.3793C27.6367 19.6043 27.6067 19.8294 27.5373 20.0437C27.4413 20.4864 27.5229 20.9491 27.7646 21.3322C27.8025 21.3928 27.7167 21.4787 27.6636 21.4206C27.5225 21.2736 27.4135 21.0989 27.3434 20.9075C27.2734 20.7162 27.2439 20.5124 27.2569 20.309Z" fill="white"/>
<path d="M9.57476 7.61177C9.63948 7.5656 9.71239 7.53217 9.78962 7.51324C9.99184 7.47029 10.1233 7.63198 10.1991 7.8164C10.237 7.90987 10.2674 8.00587 10.3053 8.10187C10.505 8.5945 10.6769 9.1124 10.917 9.57724C11.324 10.3806 11.7714 11.1638 12.2087 11.9545C12.78 12.9928 13.3386 14.0412 13.9427 15.0619C14.2739 15.6252 14.7011 16.133 15.0625 16.6711C15.5201 17.3406 15.9801 18.0101 16.4073 18.6922C16.9706 19.6407 17.7968 20.4059 18.786 20.8951C19.3269 21.1478 19.8653 21.4913 20.5099 21.3802C20.9455 21.3172 21.3744 21.2149 21.7915 21.0745C22.1646 20.9018 22.5275 20.7078 22.8784 20.4935C23.523 20.165 24.2358 20.0918 24.9335 19.9882C25.0988 19.9703 25.2574 19.9131 25.3961 19.8215C25.5294 19.7251 25.63 19.5902 25.6842 19.4349C25.7727 19.1823 25.8688 18.9524 25.937 18.7023C26.1215 17.9798 26.2151 17.2598 25.8763 16.5448C25.7433 16.2617 25.6326 15.9686 25.5452 15.6682C25.3984 15.2199 25.3568 14.7439 25.4234 14.2769C25.49 13.81 25.6631 13.3646 25.9294 12.9751C27.2135 11.0703 28.5507 9.18566 29.7969 7.26819C30.808 5.69177 32.1452 4.42356 33.5127 3.18061C33.5405 3.15491 33.57 3.13126 33.6012 3.10987C33.9778 2.84461 34.3899 3.0164 34.4935 3.50398C34.5445 3.77451 34.559 4.05066 34.5365 4.32503C34.4783 5.08292 34.3722 5.82566 34.3216 6.57851C34.1902 8.59956 34.0486 10.6206 33.9753 12.6417C33.9473 13.4593 34.0084 14.2776 34.1573 15.0821C34.265 15.5718 34.2546 16.0801 34.127 16.565C33.9298 17.285 33.9627 18.0076 34.4556 18.6113C34.6001 18.7728 34.6971 18.971 34.7359 19.1841C34.7747 19.3973 34.7538 19.6169 34.6755 19.8189C34.4758 20.4227 34.2433 21.0139 34.0486 21.6202C33.9484 21.925 33.8781 22.239 33.8388 22.5574C33.838 22.6286 33.8521 22.6992 33.8805 22.7645C33.9088 22.8298 33.9506 22.8884 34.0031 22.9364C34.3773 23.2563 34.7781 23.5437 35.2013 23.7953C35.7882 24.1389 36.4091 24.4208 37.0541 24.6366C37.6872 24.7941 38.3323 24.898 38.9828 24.9473C39.549 25.0181 39.7235 25.1596 39.7664 25.7052C39.8084 26.2405 40.0012 26.7529 40.3225 27.1831C40.5798 27.535 40.7267 27.9553 40.7447 28.3907C40.7725 28.9591 40.7927 29.5301 40.7952 30.0985C40.7843 30.2685 40.8118 30.4387 40.8757 30.5966C40.9396 30.7545 41.0382 30.8959 41.1643 31.0105C41.5068 31.2937 41.7734 31.6577 41.9398 32.0697C42.1061 32.4817 42.1672 32.9286 42.1173 33.3701C42.0954 33.7011 42.1038 34.0334 42.1425 34.3629C42.1562 34.5737 42.2112 34.7797 42.3043 34.9692C42.5369 35.4164 42.8099 35.8433 43.0627 36.2829C43.2782 36.5798 43.4525 36.9044 43.5808 37.248C43.6565 37.5867 43.661 37.9374 43.594 38.2779C43.527 38.6184 43.39 38.9413 43.1916 39.2261C43.1019 39.3723 42.9842 39.4993 42.8453 39.6C42.6356 39.7408 42.3875 39.8132 42.135 39.8071C41.9429 39.8071 41.7507 39.792 41.5283 39.7819V39.7465C41.3867 39.7793 41.2477 39.8046 41.1062 39.8299C41.0944 39.8722 41.0727 39.9112 41.043 39.9436C40.5374 40.4791 40.0319 41.0172 39.5263 41.5351C39.1613 41.9361 38.7631 42.3054 38.3357 42.6391L38.2245 42.7149C37.282 43.2956 36.1667 43.5305 35.0698 43.3793C34.6793 43.3715 34.3038 43.2277 34.0082 42.9726C33.2852 42.2652 32.7797 41.4568 32.8555 40.3932C32.8555 40.2745 32.8555 40.1532 32.8707 40.0345C32.9572 39.1708 33.1543 38.3217 33.4571 37.5082C33.4875 37.4198 33.5127 37.3339 33.538 37.2556L33.4495 37.2126C33.1907 37.564 32.9551 37.932 32.7443 38.3141C32.5184 38.8183 32.3201 39.3344 32.1503 39.8602C32.0408 40.2223 31.8427 40.5514 31.5739 40.8177C30.9305 41.403 30.1593 41.8303 29.3217 42.0657C27.6405 42.5177 25.9179 42.7987 24.1802 42.9044C24.0239 42.9153 23.8669 42.8964 23.7176 42.8488C22.8582 42.576 21.9886 42.3208 21.1494 42C20.4186 41.7652 19.7409 41.3892 19.155 40.8934C18.5761 40.3528 17.9644 39.8476 17.6636 39.0745C17.5047 38.6818 17.3145 38.3025 17.0949 37.9402C16.4452 36.821 15.7349 35.7499 14.6682 34.9642C14.1554 34.5771 13.7727 34.0431 13.5712 33.4332C13.2688 32.5986 12.7854 31.8411 12.1556 31.2151C11.3314 30.3981 10.6647 29.4364 10.189 28.3781C9.68346 27.1958 9.08438 26.0513 8.8316 24.7705C8.71279 24.1667 8.55353 23.5705 8.40945 22.9718C7.46434 19.2238 7.37793 15.311 8.15667 11.525C8.41096 10.2346 8.82801 8.98169 9.39782 7.79619C9.43858 7.72129 9.49664 7.65719 9.56717 7.60924L9.57476 7.61177ZM8.63949 6.28798C8.34768 6.48953 8.11055 6.76037 7.94941 7.07619C7.32246 8.38755 6.86383 9.77284 6.58441 11.1991C5.75904 15.221 5.84542 19.3766 6.83718 23.3608C6.88016 23.5301 6.9206 23.7019 6.96357 23.8661C7.06974 24.2905 7.16832 24.6897 7.24668 25.0888C7.50682 26.2208 7.89788 27.3187 8.41198 28.3604C8.51562 28.5903 8.61169 28.805 8.70774 29.0248C9.25693 30.2556 10.0281 31.3749 10.9827 32.3267C11.4486 32.7853 11.8076 33.3407 12.0343 33.9537C12.345 34.8703 12.9256 35.6716 13.7001 36.2526C14.4862 36.8337 15.0626 37.6673 15.6894 38.741C15.8635 39.032 16.0164 39.3351 16.147 39.648C16.5514 40.6888 17.2794 41.3583 17.8633 41.8964L18.0403 42.0606C18.7788 42.703 19.6382 43.1916 20.568 43.4981C21.2682 43.7659 21.9709 43.9857 22.6509 44.1979L23.2272 44.3798C23.5733 44.4891 23.937 44.5319 24.299 44.5061H24.3117C26.156 44.3882 27.9841 44.0878 29.7691 43.6092C30.4769 43.4064 31.1501 43.0981 31.766 42.6947C32.0625 43.2226 32.4356 43.7036 32.8732 44.1221C33.4269 44.6347 34.1419 44.9384 34.8954 44.981C36.3585 45.1737 37.843 44.8512 39.0941 44.069C39.1497 44.0337 39.2078 43.9958 39.2634 43.9553C39.6842 43.6445 40.0751 43.2952 40.4313 42.912L40.6613 42.677C41.0733 42.2703 41.4702 41.8509 41.8544 41.4417H42.1451C42.7296 41.4474 43.3013 41.2708 43.7805 40.9364C44.0955 40.7133 44.3621 40.4289 44.5641 40.1002C44.8777 39.6326 45.0922 39.1059 45.1944 38.5524C45.2966 37.9988 45.2842 37.4302 45.1582 36.8817C45.041 36.4573 44.8511 36.0564 44.597 35.6968C44.549 35.621 44.501 35.5503 44.4732 35.4972L44.19 35.0147C44.0358 34.7621 43.8918 34.5094 43.7679 34.277C43.7679 34.277 43.7679 34.2492 43.7679 34.229C43.7403 33.9977 43.7327 33.7644 43.7452 33.5318C43.8123 32.8807 43.7284 32.223 43.5 31.6096C43.2716 30.9962 42.9048 30.4437 42.4282 29.9949C42.4282 29.4012 42.4004 28.8328 42.3776 28.3452C42.3453 27.5972 42.092 26.8754 41.6496 26.2711C41.5027 26.0807 41.4148 25.8515 41.3968 25.6118C41.3728 25.0073 41.1241 24.4334 40.6992 24.0025C40.2835 23.6367 39.76 23.4159 39.2078 23.3734L38.725 23.3153C38.3267 23.2841 37.9318 23.219 37.5445 23.1208C37.0049 22.9342 36.485 22.6947 35.9925 22.4059C35.8575 22.33 35.7275 22.2456 35.6032 22.1532C35.7018 21.8551 35.808 21.5545 35.9217 21.2362C36.0228 20.9558 36.129 20.6652 36.225 20.3697C36.3879 19.9081 36.4269 19.4119 36.3382 18.9305C36.2495 18.4491 36.0362 17.9994 35.7195 17.6261C35.679 17.5756 35.5805 17.4568 35.6993 17.0299C35.8905 16.311 35.9104 15.5574 35.7574 14.8294C35.6302 14.1398 35.5785 13.4384 35.6032 12.7377C35.6664 11.0021 35.7827 9.22608 35.8964 7.50819L35.947 6.71745C35.9722 6.34355 36.0127 5.95956 36.0557 5.56545C36.0911 5.21429 36.1315 4.85051 36.1593 4.47408C36.1949 4.04749 36.1702 3.61801 36.086 3.19829C36.0185 2.8319 35.8597 2.48842 35.6242 2.19963C35.3887 1.91084 35.0842 1.68606 34.7387 1.54608C34.4008 1.41761 34.0362 1.37528 33.6779 1.42292C33.3195 1.47055 32.9787 1.60665 32.6862 1.81892C32.5974 1.87863 32.5129 1.94447 32.4334 2.01598C31.0355 3.27913 29.5795 4.66861 28.4471 6.42187C27.6711 7.62187 26.8394 8.82945 26.0356 9.99661C25.5629 10.6863 25.0725 11.3962 24.5973 12.1036C24.1984 12.6883 23.9375 13.3559 23.8342 14.0561C23.7309 14.7562 23.7878 15.4707 24.0007 16.1457C24.112 16.5275 24.2531 16.9 24.4229 17.2598C24.5114 17.4492 24.5392 17.7019 24.3774 18.3259C24.3774 18.3688 24.3521 18.4168 24.3369 18.4673C23.5796 18.5432 22.8409 18.7483 22.1529 19.0737C21.9684 19.1697 21.8041 19.2682 21.6474 19.3541C21.5128 19.4408 21.3717 19.5168 21.2252 19.5814C20.908 19.6839 20.5823 19.7583 20.2521 19.8038C20.0691 19.7439 19.8922 19.6669 19.7237 19.5739C19.6454 19.5334 19.5696 19.4956 19.4912 19.4602C18.78 19.1005 18.1876 18.5435 17.785 17.856C17.3881 17.2168 16.966 16.5928 16.559 16.0017L16.4023 15.7743C16.2506 15.552 16.0964 15.3398 15.9473 15.1351C15.7198 14.8294 15.5074 14.5364 15.3381 14.2534C14.8932 13.4956 14.4609 12.7099 14.0439 11.9444L13.6293 11.1865L13.326 10.6408C12.9847 10.0294 12.6637 9.45345 12.3654 8.8724C12.234 8.61976 12.1126 8.30903 11.9938 7.98819C11.9357 7.83408 11.8725 7.67745 11.8068 7.51577L11.784 7.45261C11.7638 7.39198 11.736 7.31619 11.7006 7.23029C11.2987 6.27534 10.3963 5.77008 9.45342 5.96713C9.16742 6.03185 8.8969 6.15202 8.65718 6.32082L8.63949 6.28798Z" fill="black"/>
<path d="M11.7087 23.7727C12.0394 24.5564 12.5048 25.2764 13.0838 25.8998C13.1698 25.9882 13.2582 26.0691 13.3366 26.1524C13.3774 26.1873 13.4246 26.2139 13.4756 26.2308L13.5161 26.2484L13.7486 26.352L13.8472 26.1171C13.9503 25.827 13.9627 25.5124 13.8826 25.2152V25.1621C13.8826 25.0939 13.8573 25.0232 13.8447 24.9524C13.7927 24.7365 13.7664 24.5152 13.7663 24.2931C13.7723 23.992 13.862 23.6986 14.0254 23.4456C14.1888 23.1926 14.4194 22.99 14.6915 22.8607C14.8382 22.7972 14.9683 22.7008 15.0717 22.5791C15.1752 22.4573 15.2492 22.3133 15.288 22.1583C15.303 21.9872 15.2782 21.8149 15.2154 21.6549C15.1527 21.495 15.0539 21.3517 14.9266 21.2362C14.3527 20.5971 13.7966 19.9529 13.2709 19.3213C12.3811 18.2552 11.8629 16.9945 11.4079 15.7844C11.2461 15.355 11.0869 14.976 10.9251 14.6198C10.8671 14.5117 10.7891 14.4157 10.6951 14.3369C10.6698 14.3116 10.642 14.2889 10.6192 14.2611L10.4777 14.1095L10.096 14.3495V14.4733C9.90893 16.7242 9.80782 19.1141 10.8063 21.4055C10.9731 21.792 11.1197 22.1962 11.2638 22.5903C11.4079 22.9844 11.5393 23.3811 11.7087 23.7727ZM12.1637 23.5756C12.0019 23.1992 11.8578 22.8026 11.7188 22.4186C11.5798 22.0346 11.4231 21.6076 11.2486 21.2084C10.3665 19.1874 10.3892 17.035 10.5434 14.9887C10.6748 15.2868 10.7962 15.6076 10.9403 15.9588C11.3902 17.1436 11.9514 18.5028 12.8841 19.6295C13.4149 20.2636 13.9761 20.9129 14.5524 21.5571C14.6788 21.6985 14.8229 21.9032 14.8052 22.0623C14.7875 22.2215 14.603 22.3352 14.4589 22.416C14.3674 22.4657 14.2788 22.5205 14.1935 22.5802C13.9166 22.7659 13.6887 23.0155 13.5289 23.308C13.3692 23.6004 13.2824 23.9271 13.2759 24.2602C13.2758 24.5221 13.3055 24.7832 13.3644 25.0383L13.4023 25.2379V25.2935C13.4175 25.3844 13.4326 25.4703 13.4402 25.5461C12.9036 24.9692 12.4717 24.3032 12.1637 23.5781V23.5756Z" fill="white"/>
<path d="M35.6189 28.944C36.4 29.7019 37.1786 30.5002 37.9268 31.2682L38.2554 31.6042C38.3342 31.6919 38.4375 31.754 38.5519 31.7824C38.6664 31.8108 38.7868 31.8041 38.8975 31.7634C39.0836 31.706 39.26 31.6208 39.4207 31.5107C39.7715 31.255 40.024 30.8867 40.136 30.4674C40.2275 30.1703 40.2727 29.8611 40.27 29.5503C40.2523 28.4691 39.9111 27.461 39.1654 26.2838L39.1401 26.2434L39.1022 26.2156L38.9581 26.0994C38.7519 25.9134 38.5215 25.7562 38.2731 25.632C37.5148 25.2909 36.4152 25.728 36.0486 26.5137C35.8768 26.885 35.7099 27.2716 35.5431 27.6303L35.4116 27.9309C35.3243 28.0979 35.2972 28.2898 35.335 28.4743C35.3727 28.6589 35.473 28.8248 35.6189 28.944ZM35.8717 28.1305L36.0057 27.8274C36.1624 27.4636 36.3267 27.0872 36.4961 26.7234C36.7488 26.1827 37.5552 25.8543 38.0658 26.0842C38.2717 26.1903 38.4629 26.3228 38.6346 26.4783L38.766 26.5869C39.446 27.6682 39.7544 28.5853 39.7771 29.5579C39.777 29.8148 39.7386 30.0702 39.6634 30.3158C39.6086 30.5418 39.4959 30.7496 39.3363 30.9188C39.1767 31.088 38.9758 31.2128 38.7534 31.2808C38.675 31.3061 38.6624 31.2985 38.6118 31.248L38.2857 30.9145C37.5274 30.144 36.7691 29.3457 35.9678 28.5802C35.8971 28.5306 35.8481 28.4559 35.8307 28.3714C35.8133 28.2869 35.8289 28.1989 35.8742 28.1255L35.8717 28.1305Z" fill="white"/>
<path d="M17.348 39.0543C17.6387 39.7971 18.1847 40.3023 18.7156 40.7899L18.9026 40.9617C19.5105 41.4806 20.2149 41.8747 20.9754 42.1213C21.6377 42.3739 22.3252 42.5887 22.9976 42.7958L23.5663 42.9752C23.7465 43.033 23.9363 43.0553 24.125 43.0409C25.8795 42.932 27.6188 42.6484 29.317 42.1945C30.1903 41.9465 30.9942 41.4995 31.6653 40.8884C31.9656 40.5967 32.1866 40.2332 32.3074 39.8324L32.3933 39.5798C32.5096 39.2489 32.6284 38.9078 32.7649 38.5819C32.654 39.0143 32.5813 39.4556 32.5475 39.9007C32.5475 39.9638 32.5475 40.027 32.5475 40.0927C32.5475 40.1583 32.5475 40.2038 32.5475 40.2594C32.4767 41.2699 32.8685 42.1465 33.776 43.0383C34.1122 43.3324 34.5403 43.5003 34.9868 43.5133C36.1395 43.6698 37.3108 43.4215 38.3007 42.811C38.6989 42.533 39.0651 42.2119 39.3927 41.8535L39.6455 41.6009C40.103 41.1487 40.5479 40.6712 40.9802 40.2114L41.1773 40.0042C41.197 39.9822 41.2148 39.9586 41.2304 39.9335H41.4705H41.6753C41.8168 39.9335 41.9508 39.9487 42.0873 39.9487C42.3915 39.9556 42.6902 39.8672 42.9417 39.696C43.1076 39.577 43.2477 39.4258 43.3537 39.2514C43.5704 38.939 43.7197 38.585 43.7924 38.2119C43.8651 37.8388 43.8594 37.4546 43.7759 37.0838C43.6916 36.8122 43.5635 36.5562 43.3967 36.3259C43.336 36.235 43.2804 36.1491 43.2299 36.0607C43.1439 35.9091 43.0529 35.7575 42.9644 35.6034C42.8001 35.328 42.6308 35.0425 42.4791 34.7545C42.4049 34.5954 42.3595 34.4243 42.3451 34.2493C42.3106 33.9356 42.303 33.6195 42.3224 33.3044C42.3753 32.824 42.3083 32.3379 42.1275 31.8896C41.9466 31.4412 41.6575 31.0447 41.286 30.7352C41.1855 30.6448 41.1076 30.5321 41.0584 30.4062C41.0093 30.2803 40.9902 30.1447 41.0029 30.0101C41.0029 29.3962 40.9751 28.795 40.9498 28.2897C40.9293 27.8059 40.7657 27.3391 40.4797 26.9482C40.1867 26.5545 40.0114 26.0859 39.9741 25.5966C39.9185 24.8665 39.5798 24.6847 38.963 24.6063L38.5105 24.5533C38.0243 24.5135 37.5428 24.4289 37.0722 24.3006C36.4447 24.0878 35.8401 23.8127 35.2674 23.4796C34.8961 23.2571 34.5443 23.0036 34.2158 22.7217L34.1046 22.6333C34.0656 22.5895 34.0409 22.5348 34.0338 22.4767C34.071 22.1746 34.137 21.8768 34.231 21.5874C34.3346 21.2665 34.4534 20.9406 34.5647 20.6249C34.6633 20.352 34.7644 20.0716 34.8579 19.7887C34.9506 19.5479 34.9761 19.2865 34.9315 19.0324C34.887 18.7783 34.7742 18.5411 34.6051 18.3461C34.2108 17.8611 34.1173 17.2674 34.322 16.5221C34.4594 16.0009 34.4707 15.4545 34.3549 14.928C34.2087 14.1411 34.1494 13.3405 34.1779 12.5407C34.2436 10.7722 34.3599 9.00381 34.4737 7.2657L34.5242 6.48002C34.552 6.07581 34.595 5.66402 34.638 5.26486C34.6734 4.92633 34.7113 4.57518 34.7366 4.22654C34.7634 3.92862 34.7481 3.6284 34.6911 3.33475C34.6675 3.18253 34.6039 3.03932 34.5066 2.91987C34.4093 2.80042 34.2819 2.70906 34.1375 2.65518C33.9906 2.61443 33.8356 2.6138 33.6884 2.65335C33.5412 2.69289 33.4074 2.77117 33.3008 2.88002C31.9712 4.0876 30.586 5.40634 29.542 7.0156C28.7508 8.24086 27.9091 9.4636 27.0951 10.6484C26.6275 11.3255 26.1447 12.0253 25.677 12.72C25.3899 13.1397 25.203 13.6197 25.1307 14.1229C25.0584 14.6262 25.1026 15.1393 25.26 15.6228C25.3514 15.9353 25.4672 16.2403 25.6063 16.5348C25.9222 17.2017 25.8135 17.8863 25.6492 18.5255C25.5944 18.7263 25.5278 18.9237 25.4495 19.1166L25.4066 19.2303C25.3668 19.3449 25.2924 19.4444 25.1937 19.515C25.095 19.5856 24.9769 19.6238 24.8555 19.6244L24.6634 19.6522C23.9932 19.7096 23.3375 19.8805 22.7246 20.1575C22.578 20.2308 22.4364 20.3167 22.2999 20.3975C22.0976 20.526 21.8844 20.6367 21.6629 20.7284C21.2664 20.8611 20.8586 20.9575 20.4446 21.0164H20.4243C19.944 21.1023 19.5143 20.8876 19.0619 20.6628C18.9911 20.624 18.9203 20.5887 18.8495 20.5567C17.9007 20.0892 17.1098 19.354 16.5745 18.4421C16.1928 17.8308 15.7808 17.227 15.3814 16.6434L15.2222 16.411C15.0831 16.2063 14.9365 16.0042 14.7924 15.8097C14.5574 15.4889 14.3122 15.1579 14.11 14.8143C13.6625 14.0564 13.2328 13.2708 12.8183 12.5103L12.381 11.7145L12.07 11.1537C11.7414 10.5625 11.4027 9.9537 11.0943 9.34233C10.9326 9.02402 10.7986 8.67539 10.6671 8.33181C10.609 8.18023 10.5509 8.02865 10.4902 7.87707C10.4725 7.83665 10.4573 7.7937 10.4422 7.75076C10.427 7.70781 10.4043 7.64465 10.384 7.5916C10.2399 7.24802 9.9821 7.08634 9.69141 7.14191C9.5753 7.16932 9.46615 7.22052 9.37086 7.29227C9.27557 7.36403 9.19621 7.45477 9.13783 7.55875C8.55644 8.76283 8.13169 10.0363 7.87394 11.3482C7.08998 15.1711 7.17638 19.1212 8.12672 22.9061C8.16716 23.0729 8.20762 23.2371 8.25059 23.4114C8.35423 23.8358 8.46292 24.2729 8.54887 24.7049C8.79125 25.7361 9.15085 26.7363 9.62064 27.6859C9.72175 27.9108 9.82286 28.1356 9.92144 28.3604C10.3941 29.4449 11.0624 30.4332 11.8931 31.2758C12.4969 31.8767 12.9612 32.6029 13.253 33.403C13.4697 34.0613 13.8835 34.6372 14.4386 35.0527C15.4168 35.7727 16.0892 36.7327 16.797 37.9529C17.0087 38.3053 17.193 38.6736 17.348 39.0543ZM41.698 39.4712C41.6488 38.6113 41.4856 37.7618 41.2127 36.9449C41.2057 36.8929 41.2057 36.8402 41.2127 36.7882C41.2127 36.7604 41.2127 36.7301 41.2127 36.7023C41.2213 36.6224 41.2348 36.5431 41.2532 36.4649C41.3189 36.2465 41.3189 36.0137 41.2532 35.7954C41.228 35.7566 41.2112 35.713 41.2037 35.6673C41.1962 35.6217 41.1982 35.575 41.2096 35.5302C41.221 35.4854 41.2415 35.4434 41.2699 35.4069C41.2983 35.3703 41.3339 35.3401 41.3745 35.3179C41.4478 35.2628 41.5256 35.2138 41.607 35.1714C41.7092 35.1164 41.8072 35.0539 41.9003 34.9844C41.9256 34.9736 41.9501 34.9609 41.9736 34.9465C41.983 34.9708 41.994 34.9944 42.0064 35.0173C42.1631 35.3154 42.335 35.6084 42.512 35.8914C42.6005 36.0404 42.6915 36.1895 42.7648 36.3411C42.8204 36.4396 42.8836 36.5356 42.9417 36.6291C43.0788 36.8148 43.1855 37.0212 43.2577 37.2404C43.3243 37.5468 43.3268 37.8636 43.265 38.171C43.2032 38.4784 43.0785 38.7696 42.8987 39.0265C42.814 39.1746 42.6902 39.2965 42.5409 39.3789C42.3915 39.4613 42.2224 39.5011 42.0519 39.4939C41.9432 39.4939 41.8244 39.4762 41.698 39.4712ZM14.7318 34.651C14.2575 34.2964 13.9043 33.8041 13.7207 33.2413C13.4068 32.3719 12.9035 31.5832 12.247 30.9322C11.4517 30.1379 10.8076 29.2057 10.3461 28.1811C10.2475 27.9537 10.1464 27.7263 10.0453 27.499C9.58987 26.5845 9.24127 25.6207 9.00639 24.6265C8.91792 24.1819 8.80922 23.7398 8.70306 23.3103C8.66093 23.1419 8.62049 22.9777 8.58173 22.8177C7.64812 19.1051 7.56173 15.2301 8.32895 11.4796C8.57876 10.2093 8.989 8.97584 9.54985 7.80886C9.60186 7.7351 9.67777 7.68156 9.76472 7.65728C9.82034 7.65728 9.88859 7.80633 9.89111 7.81139C9.90881 7.85686 9.9265 7.90234 9.94167 7.94781C9.95684 7.99328 9.97705 8.04634 9.99728 8.09434C10.0579 8.24339 10.1136 8.39244 10.1717 8.54149C10.3057 8.8876 10.4447 9.24886 10.6166 9.58991C10.93 10.2089 11.2713 10.8228 11.6024 11.4164L11.9133 11.9773L12.3481 12.7705C12.7652 13.5284 13.1974 14.3268 13.6499 15.0897C13.8648 15.4535 14.115 15.7971 14.3577 16.128C14.4992 16.32 14.6458 16.5171 14.7798 16.7141L14.9365 16.9465C15.3334 17.5251 15.7429 18.1263 16.1195 18.7276C16.7038 19.7195 17.5658 20.5187 18.5993 21.0265L18.804 21.1276C19.2868 21.3802 19.8328 21.6329 20.4749 21.5293H20.4951C20.9395 21.4657 21.377 21.3608 21.802 21.216C22.0517 21.1145 22.2919 20.991 22.5198 20.8472C22.6538 20.7663 22.7726 20.6905 22.9142 20.6223C23.4786 20.3736 24.0812 20.2224 24.6963 20.1752L24.8909 20.1474C25.1014 20.1347 25.3036 20.0604 25.4721 19.9338C25.6407 19.8071 25.7682 19.6336 25.8388 19.435L25.8818 19.3213C25.9576 19.1141 26.0385 18.9019 26.0966 18.6796C26.2736 17.9849 26.405 17.1638 26.0208 16.3529C25.8928 16.0812 25.7863 15.7999 25.7023 15.5116C25.5665 15.0984 25.5276 14.6596 25.5885 14.229C25.6494 13.7984 25.8086 13.3876 26.0537 13.0282C26.5213 12.336 27.0041 11.6362 27.4692 10.9592C28.2857 9.77434 29.13 8.54655 29.9262 7.31623C30.9373 5.75244 32.2947 4.46402 33.5991 3.27413C33.6421 3.22527 33.6971 3.18841 33.7587 3.16715C33.8203 3.1459 33.8864 3.14097 33.9504 3.15286C34.0103 3.18163 34.0618 3.22533 34.0999 3.27976C34.1379 3.33419 34.1613 3.3975 34.1678 3.4636C34.218 3.71295 34.2308 3.96838 34.2057 4.22149C34.1805 4.56255 34.1425 4.90865 34.1071 5.23202C34.0642 5.63623 34.0212 6.05307 33.9934 6.46739L33.9428 7.25307C33.8291 8.9836 33.7103 10.7899 33.6446 12.5432C33.6156 13.3795 33.6784 14.2165 33.8316 15.0392C33.9321 15.492 33.9235 15.9622 33.8063 16.411C33.5536 17.3078 33.6875 18.0708 34.183 18.6847C34.3002 18.8142 34.3789 18.9739 34.4102 19.1458C34.4415 19.3176 34.424 19.4948 34.3599 19.6573C34.2664 19.9327 34.1678 20.2131 34.0692 20.4834C33.9555 20.8017 33.8367 21.1301 33.7305 21.4585C33.6259 21.7791 33.5531 22.1091 33.5131 22.4438C33.5055 22.5568 33.5244 22.67 33.5683 22.7743C33.6122 22.8787 33.6799 22.9714 33.7659 23.0451L33.8746 23.1335C34.2248 23.4309 34.6003 23.6972 34.9969 23.9293C35.5997 24.2802 36.2366 24.5688 36.8978 24.7908C37.3938 24.9276 37.9016 25.0173 38.4145 25.0585L38.8594 25.1116C39.3295 25.1697 39.3927 25.2303 39.4256 25.6472C39.4705 26.228 39.6791 26.7842 40.0272 27.2514C40.2549 27.5639 40.3858 27.9364 40.4038 28.3225C40.4266 28.8278 40.4518 29.419 40.4544 30.0228C40.4437 30.2272 40.4787 30.4315 40.557 30.6208C40.6353 30.81 40.7548 30.9794 40.9069 31.1166C41.2203 31.3747 41.4641 31.7071 41.616 32.0835C41.7679 32.46 41.823 32.8684 41.7764 33.2716C41.7522 33.5625 41.7522 33.8548 41.7764 34.1457C41.6962 34.1069 41.6112 34.0789 41.5236 34.0623C41.3934 34.0318 41.2581 34.03 41.1272 34.057C40.9962 34.0841 40.8727 34.1393 40.7653 34.219L40.7476 34.2341C40.6217 34.3608 40.4778 34.468 40.3204 34.5524C39.8856 34.747 39.4331 34.9314 38.9958 35.1108L38.4195 35.3457C38.3363 35.3769 38.2573 35.4185 38.1844 35.4695C38.0612 35.5751 37.9679 35.7112 37.9138 35.8641C37.8597 36.0171 37.8467 36.1815 37.876 36.3411C37.879 36.3932 37.8952 36.4438 37.923 36.4879C37.9509 36.5321 37.9895 36.5685 38.0353 36.5937C38.1631 36.6783 38.312 36.7256 38.4652 36.73C38.6184 36.7345 38.7698 36.696 38.9023 36.619C39.1539 36.517 39.4146 36.4392 39.6809 36.3866C39.6941 36.4024 39.7059 36.4193 39.7163 36.4371C39.7415 36.4825 39.7668 36.5356 39.7921 36.5912C39.8323 36.6891 39.8832 36.7823 39.9438 36.8691C40.0053 36.9447 40.0757 37.0125 40.1536 37.0712C40.1961 37.1022 40.2351 37.1378 40.2698 37.1773C40.4443 37.915 40.5909 38.6931 40.735 39.4232L40.7805 39.6505C40.7815 39.6564 40.7815 39.6624 40.7805 39.6682L40.5884 39.8754C40.1586 40.3327 39.7163 40.8051 39.2638 41.2522C39.1779 41.3356 39.0944 41.424 39.011 41.5049C38.7077 41.8368 38.3686 42.1342 37.9999 42.3916C37.108 42.9439 36.052 43.1698 35.0121 43.0308C34.6781 43.028 34.3555 42.9093 34.0996 42.6948C33.2907 41.9066 32.9595 41.179 33.0202 40.3099V40.123C33.0202 40.0649 33.0202 40.0093 33.0202 39.9512C33.1043 39.1096 33.2971 38.2825 33.594 37.4905C33.6142 37.4274 33.6345 37.3668 33.6521 37.3036L33.7406 37.0181L33.2603 36.7882L33.1415 36.9701C33.0708 37.0813 32.9949 37.1899 32.9191 37.2985C32.7291 37.5522 32.5601 37.8209 32.4135 38.1019C32.2158 38.535 32.042 38.9786 31.8928 39.4308L31.8094 39.6708C31.7142 39.9936 31.5405 40.2878 31.3038 40.5272C30.6889 41.0864 29.9526 41.4954 29.1527 41.7221C27.4866 42.1666 25.7804 42.4442 24.0593 42.5508C23.9344 42.5604 23.8089 42.5449 23.6902 42.5053L23.1189 42.3259C22.4642 42.1213 21.7843 41.9091 21.1372 41.6615C20.4373 41.4357 19.7876 41.0772 19.2236 40.6055L19.0341 40.4287C18.5285 39.9588 18.0432 39.5141 17.7954 38.8775C17.6301 38.4732 17.4341 38.0822 17.209 37.7078C16.4861 36.4295 15.7808 35.424 14.7318 34.651Z" fill="white"/>
<path d="M29.6031 17.6135C29.7336 17.4401 29.8763 17.2763 30.0303 17.1234C30.0992 17.0502 30.1827 16.9923 30.2755 16.9536C30.3683 16.9149 30.4682 16.8961 30.5687 16.8985C30.6731 16.9168 30.7724 16.9574 30.8596 17.0176C30.9469 17.0778 31.0201 17.1561 31.0743 17.2472L31.2107 17.4417L31.6228 18.0328L31.7517 17.4973C31.7719 17.4089 31.7972 17.328 31.8174 17.2446C31.8714 17.0872 31.9037 16.9232 31.9135 16.7571C31.9135 16.6181 31.9135 16.4766 31.9135 16.3352C31.9458 15.836 31.9263 15.3348 31.8553 14.8396C31.5372 13.0936 31.6167 11.2984 32.0879 9.58737C32.1436 9.36757 32.1875 9.14493 32.2193 8.92043C32.232 8.83706 32.2471 8.75369 32.2623 8.6678C32.2712 8.5984 32.2589 8.52793 32.2269 8.46569C32.2269 8.44801 32.2092 8.42274 32.1966 8.38737L32.0702 8.03369L31.7947 8.28632L31.6405 8.42274C31.5248 8.51522 31.4189 8.61935 31.3245 8.73348C30.1823 10.1934 29.2936 11.8348 28.6956 13.5891C28.2511 14.8238 28.0269 16.127 28.0333 17.4392C28.0398 17.6868 28.1029 17.9296 28.2179 18.1491C28.252 18.2321 28.3065 18.3052 28.3762 18.3617C28.446 18.4182 28.5289 18.4563 28.6173 18.4724C28.7111 18.4787 28.8051 18.4611 28.8904 18.4213C28.9757 18.3816 29.0495 18.321 29.1051 18.2451C29.1837 18.1556 29.2563 18.0611 29.3225 17.9621C29.368 17.899 29.4135 17.8358 29.4615 17.7752C29.5096 17.7145 29.5576 17.6741 29.6031 17.6135ZM29.689 16.7621C29.5158 16.9306 29.3569 17.1131 29.2138 17.3078L29.0773 17.4771C29.0217 17.5478 28.9686 17.6211 28.9206 17.6893C28.8642 17.7731 28.8026 17.8533 28.7361 17.9293L28.688 17.9773L28.6628 17.9369C28.5837 17.7852 28.5396 17.6177 28.5338 17.4467C28.5285 16.1922 28.7432 14.9464 29.1683 13.7659C29.7452 12.0761 30.5995 10.4941 31.6961 9.08464C31.6751 9.2132 31.6473 9.34054 31.6127 9.46611C31.1234 11.2479 31.0371 13.1163 31.3599 14.9356C31.4213 15.3986 31.4382 15.8664 31.4104 16.3326C31.4104 16.4766 31.4104 16.6181 31.4104 16.7621C31.4127 16.7958 31.4127 16.8295 31.4104 16.8632C31.3176 16.7383 31.2006 16.6332 31.0665 16.5543C30.9323 16.4753 30.7837 16.424 30.6294 16.4034C30.4563 16.3899 30.2823 16.4146 30.1199 16.4757C29.9574 16.5369 29.8103 16.6329 29.689 16.7571V16.7621Z" fill="white"/>
<path d="M21.109 32.4531C21.0922 32.5908 21.1039 32.7305 21.1435 32.8635C21.1831 32.9965 21.2496 33.1199 21.339 33.2261C23.5458 35.8737 27.4967 36.3006 29.2762 36.1566C29.4584 36.1462 29.6338 36.084 29.7818 35.9773C29.8789 35.914 29.9644 35.8345 30.0346 35.7423C31.1013 34.2695 30.4466 31.9124 30.1331 31.195C30.0438 30.9947 29.8898 30.8301 29.6958 30.7276C26.1418 28.8556 22.8001 30.8286 21.5286 31.7634C21.4139 31.8422 21.3172 31.9444 21.2449 32.0633C21.1726 32.1822 21.1263 32.315 21.109 32.4531ZM21.7207 32.9078C21.6753 32.8536 21.6413 32.7907 21.6209 32.7229C21.6005 32.6552 21.594 32.584 21.6019 32.5137C21.6109 32.4468 21.6332 32.3824 21.6675 32.3242C21.7018 32.2661 21.7474 32.2154 21.8016 32.1752L21.971 32.0514C23.2753 31.1369 26.2833 29.5124 29.4431 31.1773C29.5368 31.2279 29.6113 31.3077 29.6554 31.4046C30.0118 32.2131 30.4693 34.2619 29.6074 35.4467C29.5647 35.5071 29.5094 35.5574 29.4452 35.5941C29.381 35.6308 29.3095 35.6529 29.2358 35.659C29.1852 35.6665 24.3167 36.0227 21.7207 32.9078Z" fill="white"/>
<path d="M21.4328 25.7988C21.3772 26.0363 21.2964 26.2662 21.2484 26.5062C21.2016 26.7381 21.1687 26.9726 21.1498 27.2085C21.1126 27.6925 21.1467 28.1794 21.2509 28.6535C21.2509 28.6914 21.2029 28.7015 21.1903 28.6662C20.9465 27.8065 20.9465 26.896 21.1903 26.0363C21.2675 25.8049 21.3076 25.5627 21.309 25.3188C21.3007 25.128 21.257 24.9404 21.1802 24.7655C21.0151 24.3905 20.8001 24.0396 20.541 23.7222C20.8454 23.9899 21.1018 24.3077 21.2989 24.662C21.4765 25.0132 21.5239 25.4159 21.4328 25.7988Z" fill="white"/>
<path d="M20.6235 25.1545C20.5678 24.8649 20.4663 24.586 20.3229 24.3284C20.5091 24.4935 20.6524 24.7015 20.7404 24.9343C20.8284 25.1671 20.8585 25.4178 20.8282 25.6648C20.7571 25.9411 20.6668 26.2121 20.5579 26.4757C20.5376 26.5364 20.5199 26.597 20.5023 26.6576C20.5023 26.8496 20.4492 27.0341 20.429 27.2336C20.429 27.3599 20.429 27.4863 20.429 27.6126C20.3959 27.7345 20.3714 27.8586 20.3557 27.9839C20.3557 28.0168 20.3077 28.0218 20.2951 27.9839C20.2307 27.7776 20.2228 27.5577 20.2724 27.3473C20.2153 27.0119 20.2493 26.6672 20.3709 26.3494C20.3628 26.3387 20.3571 26.3265 20.354 26.3134C20.351 26.3003 20.3507 26.2868 20.3532 26.2736C20.3819 25.9479 20.4792 25.6319 20.6387 25.3465C20.6393 25.2822 20.6342 25.2179 20.6235 25.1545Z" fill="white"/>
<path d="M29.9396 20.4152C30.157 20.5137 30.4022 20.4152 30.6322 20.4152C30.7485 20.4152 30.8623 20.4531 30.9785 20.4682C31.0948 20.4834 31.2465 20.4682 31.3805 20.4834C31.8683 20.5263 32.1565 20.971 32.4244 21.3297C32.4573 21.3752 32.3991 21.4181 32.3562 21.3929C32.1312 21.2463 31.929 21.0847 31.7141 20.9255C31.5181 20.8169 31.296 20.7645 31.0721 20.7739C31.0642 20.7861 31.0538 20.7965 31.0416 20.8044C31.0294 20.8122 31.0157 20.8173 31.0013 20.8194C30.7643 20.8574 30.5215 20.81 30.3163 20.6855C30.2583 20.6711 30.2057 20.6404 30.1646 20.5971L30.114 20.5617V20.5466H30.1343C30.0544 20.5309 29.9792 20.4972 29.9143 20.448C29.91 20.4447 29.9071 20.4397 29.9064 20.4343C29.9057 20.4288 29.9072 20.4233 29.9106 20.419C29.9139 20.4146 29.9189 20.4118 29.9243 20.4111C29.9298 20.4104 29.9353 20.4118 29.9396 20.4152Z" fill="white"/>
<path d="M26.5996 21.8678C26.7444 22.0997 26.9058 22.3209 27.0824 22.5297C27.0698 22.5019 27.0546 22.4766 27.0394 22.4488H27.0521C27.2443 22.6734 27.4724 22.8646 27.727 23.0147C27.7801 23.0425 27.8357 23.0678 27.8888 23.0905C28.2178 23.0345 28.5551 23.0509 28.8771 23.1385C28.9038 23.1437 28.9274 23.1591 28.9429 23.1815C29.2832 23.1771 29.6185 23.2643 29.9135 23.4341C30.1289 23.457 30.3336 23.5393 30.505 23.6716C30.5278 23.6943 30.505 23.7373 30.4747 23.7246C30.3596 23.6953 30.2419 23.6775 30.1233 23.6716C30.4417 23.8065 30.7443 23.9759 31.0257 24.1768C31.0561 24.1996 31.0257 24.2476 30.9954 24.2274C30.5844 23.9682 30.1372 23.7715 29.6683 23.6438C29.4398 23.5801 29.2077 23.5303 28.9732 23.4947C28.7204 23.4594 28.4879 23.4568 28.2452 23.4291C27.8531 23.3839 27.49 23.2002 27.2214 22.9112C26.9552 22.602 26.7448 22.249 26.5996 21.8678Z" fill="white"/>
<path d="M23.6663 21.7061C23.6663 21.6885 23.636 21.6834 23.6335 21.7061C23.5775 22.0194 23.4308 22.3092 23.2116 22.5398C22.9747 22.7417 22.7527 22.9604 22.5472 23.1941C22.3958 23.4059 22.2904 23.6471 22.2378 23.902C22.1851 24.157 22.1864 24.4201 22.2415 24.6746C22.2444 24.6886 22.2515 24.7015 22.2619 24.7114C22.2723 24.7213 22.2854 24.7279 22.2996 24.7301C22.2984 24.736 22.2984 24.742 22.2996 24.7478C22.3147 24.8236 22.431 24.7958 22.431 24.7251C22.4268 24.2745 22.5991 23.8402 22.911 23.515C23.0816 23.3741 23.2246 23.2028 23.3329 23.0097C23.3733 22.9115 23.398 22.8075 23.4061 22.7015C23.4722 22.6207 23.5274 22.5315 23.5703 22.4362C23.6642 22.2051 23.6972 21.9537 23.6663 21.7061ZM23.0297 23.088L23.1636 22.9516C23.131 22.999 23.0946 23.0438 23.055 23.0855C23.0095 23.1335 22.9615 23.179 22.9135 23.2219C22.9514 23.1764 22.9893 23.131 23.0297 23.088Z" fill="white"/>
<path d="M26.9259 27.408C26.9259 27.416 26.9228 27.4237 26.9171 27.4294C26.9114 27.4351 26.9036 27.4383 26.8956 27.4383C26.8876 27.4383 26.8798 27.4351 26.8742 27.4294C26.8685 27.4237 26.8653 27.416 26.8653 27.408C26.8751 27.2667 26.8606 27.1249 26.8223 26.9886C26.8201 27.1135 26.8014 27.2375 26.7667 27.3574C26.7648 27.3637 26.761 27.3692 26.7557 27.3731C26.7505 27.377 26.7442 27.3791 26.7376 27.3791C26.7311 27.3791 26.7247 27.377 26.7195 27.3731C26.7143 27.3692 26.7104 27.3637 26.7086 27.3574C26.7268 27.0847 26.6539 26.8137 26.5013 26.5869C26.342 26.352 26.0437 26.2029 25.9957 25.9073C25.9679 25.776 25.9957 25.6547 25.978 25.5132C25.9512 25.388 25.9087 25.2666 25.8516 25.152C25.6768 24.9119 25.5466 24.6424 25.4674 24.3562C25.3223 23.8764 25.1345 23.4105 24.9062 22.9642C24.9062 22.949 24.9189 22.9364 24.929 22.9515C25.0714 23.1559 25.203 23.3676 25.3233 23.5857C25.245 23.3962 25.159 23.2092 25.0706 23.0248C25.0689 23.0218 25.0685 23.0182 25.0694 23.0149C25.0704 23.0116 25.0726 23.0088 25.0756 23.0071C25.0786 23.0054 25.0822 23.005 25.0855 23.006C25.0888 23.0069 25.0916 23.0092 25.0933 23.0122C25.3463 23.37 25.5638 23.7516 25.7429 24.1515C25.8621 24.4736 26.0217 24.7793 26.2182 25.061C26.2983 25.1574 26.3972 25.2365 26.5089 25.2934C26.6618 25.3353 26.8211 25.349 26.979 25.3339C27.326 25.296 27.676 25.296 28.023 25.3339C28.2398 25.3669 28.4514 25.4281 28.6524 25.5158C28.8684 25.5912 29.0746 25.6922 29.2667 25.8164C29.2712 25.8202 29.2743 25.8256 29.2753 25.8315C29.2763 25.8373 29.2752 25.8434 29.2722 25.8485C29.2692 25.8537 29.2644 25.8576 29.2588 25.8596C29.2531 25.8616 29.247 25.8615 29.2414 25.8593C29.1953 25.8374 29.148 25.818 29.0998 25.8012H29.0847L28.9279 25.7355C28.6821 25.6515 28.4278 25.5947 28.1696 25.5663C27.8017 25.5537 27.4335 25.5765 27.07 25.6345C26.8555 25.662 26.6375 25.6323 26.4381 25.5486V25.5663C26.436 25.7055 26.4547 25.8443 26.4937 25.9781C26.5779 26.0968 26.6708 26.2091 26.7717 26.3141C26.8481 26.4243 26.9078 26.5451 26.9487 26.6728C27.012 26.9149 27.0041 27.1702 26.9259 27.408Z" fill="white"/>
<path d="M16.3573 29.5528C16.3562 29.5505 16.3556 29.5479 16.3556 29.5452C16.3556 29.5426 16.3562 29.54 16.3573 29.5377C16.5418 29.2366 16.7882 28.9783 17.0803 28.7798C17.3493 28.6154 17.6359 28.4815 17.9347 28.3806C18.0827 28.3369 18.2172 28.2565 18.3259 28.147C18.4346 28.0375 18.5139 27.9024 18.5565 27.7541C18.6088 27.4479 18.6207 27.1362 18.5919 26.8269C18.5855 26.4309 18.616 26.0351 18.6829 25.6446C18.6829 25.6295 18.7082 25.6295 18.7056 25.6446C18.695 25.9642 18.706 26.284 18.7385 26.6021C18.738 26.1899 18.7718 25.7784 18.8396 25.3718C18.8396 25.3541 18.8674 25.3541 18.8674 25.3718C18.8504 25.8727 18.8792 26.3742 18.9533 26.8699C19.0064 27.1622 19.0064 27.4617 18.9533 27.7541C18.9494 27.8824 18.9622 28.0106 18.9913 28.1356C19.0267 28.2644 19.1126 28.3705 19.1455 28.4968C19.2162 28.7924 19.0115 29.0551 18.966 29.3356C18.924 29.6062 18.9748 29.8831 19.1101 30.1212C19.1278 30.1516 19.0823 30.1794 19.0595 30.1541C19.0081 30.0948 18.9617 30.0314 18.9205 29.9646C18.9153 29.9694 18.9086 29.9721 18.9015 29.9721C18.8945 29.9721 18.8877 29.9694 18.8826 29.9646C18.7248 29.7907 18.6235 29.5732 18.5919 29.3406C18.5742 29.2217 18.5742 29.1008 18.5919 28.9819C18.6337 28.8565 18.6658 28.7281 18.6879 28.5979C18.6797 28.5095 18.654 28.4236 18.6121 28.3452C18.486 28.4544 18.3413 28.54 18.1849 28.5979C17.8356 28.7008 17.497 28.837 17.1738 29.0046C16.8503 29.1987 16.5615 29.4455 16.3194 29.7347C16.3152 29.7385 16.3098 29.7407 16.3042 29.741C16.2985 29.7414 16.2929 29.7399 16.2883 29.7367C16.2836 29.7335 16.2802 29.7288 16.2785 29.7234C16.2768 29.718 16.277 29.7122 16.279 29.7069C16.2967 29.6412 16.327 29.5958 16.3573 29.5528Z" fill="white"/>
<path d="M20.26 23.3533C20.063 23.4053 19.8571 23.4154 19.6559 23.3827C19.4548 23.3501 19.2627 23.2755 19.0922 23.1638C18.9016 23.0095 18.7232 22.8406 18.5588 22.6586C18.3709 22.4948 18.1388 22.3902 17.8915 22.358C17.8763 22.358 17.8915 22.3352 17.8915 22.3327C18.0813 22.3018 18.2758 22.3182 18.4577 22.3807C18.6595 22.4816 18.8412 22.6186 18.9936 22.7849C19.3332 23.0849 19.7772 23.2392 20.2297 23.2144C20.3055 23.2194 20.3384 23.3255 20.26 23.3533Z" fill="white"/>
<path d="M27.8017 19.4451C27.7767 19.2993 27.7226 19.1601 27.6425 19.0358C27.6436 19.024 27.6436 19.0122 27.6425 19.0004H27.6274L27.6046 18.9701C27.6124 18.9056 27.6063 18.8401 27.5869 18.7781C27.5869 18.7629 27.5566 18.7781 27.5591 18.7781C27.5794 19.0156 27.3949 19.2126 27.3292 19.4299C27.2964 19.5436 27.2863 19.6598 27.261 19.776C27.2358 19.8922 27.1726 20.0286 27.1398 20.16C27.0135 20.6324 27.3343 21.0518 27.5819 21.4232C27.6122 21.4712 27.6728 21.4232 27.6627 21.3827C27.64 21.2867 27.6147 21.1958 27.5869 21.1023C27.6532 21.2389 27.7383 21.3656 27.8396 21.4787C27.8926 21.5368 27.9785 21.4509 27.9406 21.3903C27.6989 21.0072 27.6172 20.5446 27.7133 20.1019C27.7818 19.89 27.8117 19.6675 27.8017 19.4451ZM27.5061 19.9705C27.5061 19.9705 27.5187 19.9705 27.5263 19.9705C27.4785 20.1035 27.4472 20.2418 27.4328 20.3823C27.4238 20.4823 27.4238 20.5829 27.4328 20.6829L27.4177 20.6349C27.3855 20.4096 27.4161 20.1796 27.5061 19.9705Z" fill="white"/>
<path d="M63.8236 37.5006H58.4395V33.5596H73.9675V37.5006H68.5859V48H63.8236V37.5006Z" fill="white"/>
<path d="M80.9773 42.5659L74.1523 33.5596H79.8525L83.4925 38.549L87.1982 33.5596H92.4104L85.7371 42.6038V48H80.9773V42.5659Z" fill="white"/>
<path d="M63.5026 30.9751C62.7271 30.8475 61.9684 30.634 61.2402 30.3385C60.701 30.1251 60.2038 29.8181 59.7716 29.4316C59.4339 29.1239 59.1479 28.764 58.9248 28.3654C58.7331 28.0254 58.5998 27.6556 58.5304 27.2716C58.4729 26.9445 58.4425 26.6133 58.4395 26.2812V26.1044H64.1295C64.1477 26.3182 64.1936 26.5288 64.266 26.7309C64.3622 26.9831 64.5268 27.2035 64.7412 27.3676C65.0439 27.5972 65.3868 27.7686 65.7523 27.8728C66.3291 28.0263 66.9251 28.0953 67.5217 28.0774H67.686C68.2686 28.0871 68.851 28.0499 69.4277 27.9663C69.7766 27.9171 70.117 27.8193 70.4388 27.6758C70.6356 27.5945 70.7994 27.4494 70.9039 27.264C70.9783 27.1061 71.0155 26.9332 71.0126 26.7587V26.741C71.0146 26.5766 70.981 26.4137 70.914 26.2636C70.817 26.0917 70.666 25.9567 70.4843 25.8795C70.1797 25.7469 69.8566 25.6617 69.5262 25.6269C68.961 25.5538 68.3923 25.5099 67.8225 25.4956L65.2948 25.4223C64.1964 25.4143 63.1031 25.2726 62.039 25.0004C61.3085 24.8163 60.6168 24.5032 59.9966 24.0758C59.5321 23.751 59.1664 23.3042 58.9399 22.7848C58.7371 22.2921 58.6348 21.7639 58.6391 21.2311V21.0518C58.6377 20.4953 58.7495 19.9443 58.9677 19.4324C59.2243 18.8682 59.6443 18.3938 60.1735 18.0707C60.9091 17.6239 61.7177 17.31 62.5622 17.1436C63.8409 16.8875 65.1436 16.7714 66.4474 16.7974H68.0702C69.4533 16.7698 70.8351 16.8952 72.1905 17.1713C73.0857 17.3485 73.9419 17.6848 74.7183 18.1642C75.2656 18.505 75.7041 18.9949 75.9822 19.5764C76.2078 20.0857 76.3257 20.6362 76.3285 21.1932V21.3423H70.6915C70.6737 21.1907 70.6337 21.0426 70.5727 20.9027C70.4771 20.7021 70.3251 20.5336 70.1354 20.4177C69.8338 20.2292 69.5008 20.0966 69.1521 20.0261C68.5798 19.9052 67.9953 19.851 67.4105 19.8644H67.2285C66.6887 19.8557 66.149 19.8844 65.6133 19.9503C65.3037 19.9843 65.0002 20.06 64.7108 20.1751C64.5452 20.233 64.4061 20.3488 64.319 20.501C64.2637 20.625 64.2352 20.7593 64.2356 20.8951V20.9128C64.2368 21.0504 64.2715 21.1857 64.3367 21.3069C64.4389 21.4592 64.5854 21.5764 64.7563 21.6429C65.0423 21.7617 65.3435 21.8399 65.6512 21.8753C66.1617 21.9418 66.6758 21.9764 67.1906 21.9789L69.6349 22.0345C70.737 22.0541 71.8357 22.1605 72.921 22.3528C73.7012 22.4833 74.4534 22.7455 75.1455 23.1284C75.6812 23.425 76.12 23.8697 76.4094 24.4092C76.6821 24.9751 76.8164 25.5977 76.8012 26.2257V26.4783C76.8003 27.0687 76.6959 27.6544 76.4928 28.2088C76.2477 28.8261 75.8211 29.3546 75.2693 29.7246C74.4933 30.24 73.6272 30.605 72.7163 30.8008C71.2966 31.1068 69.8457 31.2441 68.3938 31.2101H66.7204C65.643 31.2264 64.5662 31.1478 63.5026 30.9751Z" fill="white"/>
<path d="M88.2313 16.7798C89.4972 16.7618 90.7616 16.8718 92.0053 17.1082C92.9336 17.2827 93.8351 17.5774 94.6872 17.9848C95.3441 18.3031 95.9424 18.7302 96.4567 19.248C96.877 19.6842 97.2275 20.1827 97.4956 20.7259C97.7302 21.2115 97.8952 21.7277 97.986 22.2593C98.0682 22.7291 98.1113 23.2048 98.1149 23.6817V24.2425C98.1112 24.7189 98.0715 25.1944 97.9961 25.6648C97.906 26.201 97.7356 26.7205 97.4905 27.2059C97.2208 27.7542 96.8707 28.2591 96.4516 28.704C95.9419 29.2317 95.3429 29.6653 94.6822 29.9848C93.8282 30.3986 92.9241 30.7001 91.9926 30.8817C90.7537 31.1225 89.4933 31.2351 88.2313 31.2177H87.4098C86.1377 31.2361 84.8671 31.1235 83.6181 30.8817C82.6861 30.7021 81.7818 30.4006 80.9286 29.9848C80.2694 29.6628 79.6708 29.2295 79.1591 28.704C78.7361 28.2623 78.3855 27.7567 78.1202 27.2059C77.8819 26.7177 77.7118 26.1992 77.6147 25.6648C77.5332 25.195 77.491 24.7193 77.4883 24.2425V23.6817C77.4911 23.2053 77.5299 22.7298 77.6046 22.2593C77.6967 21.7261 77.867 21.2094 78.1101 20.7259C78.3829 20.183 78.7366 19.6847 79.1591 19.248C79.6725 18.7291 80.2709 18.3018 80.9286 17.9848C81.7798 17.5774 82.6805 17.2827 83.608 17.1082C84.8576 16.8716 86.128 16.7616 87.3997 16.7798H88.2313ZM92.7535 23.7928C92.7502 23.4013 92.6793 23.0132 92.5437 22.6459C92.3862 22.2323 92.1251 21.8661 91.7853 21.5823C91.3377 21.2207 90.822 20.9527 90.2687 20.7941C89.4662 20.5648 88.6333 20.46 87.799 20.4833C86.9548 20.4598 86.1119 20.5646 85.2991 20.7941C84.749 20.951 84.237 21.2192 83.7951 21.5823C83.4608 21.8667 83.2064 22.2333 83.057 22.6459C82.9269 23.0144 82.8594 23.402 82.8573 23.7928V24.0177C82.8618 24.4124 82.9327 24.8035 83.0671 25.1747C83.2225 25.6051 83.4832 25.9899 83.8254 26.2939C84.2635 26.6735 84.7756 26.9583 85.3294 27.1301C86.1303 27.3723 86.9652 27.4832 87.8016 27.4585C88.6305 27.4799 89.4576 27.3725 90.2535 27.1402C90.81 26.9744 91.3263 26.6957 91.7702 26.3217C92.1116 26.024 92.3724 25.6452 92.5285 25.2202C92.6634 24.8465 92.7343 24.4528 92.7383 24.0556L92.7535 23.7928Z" fill="white"/>
<path d="M108.537 31.2177C107.328 31.2354 106.12 31.1228 104.935 30.8817C104.036 30.698 103.166 30.3991 102.344 29.9924C101.695 29.6721 101.108 29.2383 100.612 28.7116C100.192 28.2608 99.8423 27.7499 99.5733 27.1958C99.3309 26.7058 99.1606 26.1833 99.0678 25.6446C98.9879 25.1721 98.9457 24.694 98.9414 24.2147V23.6716C98.944 23.1918 98.9838 22.7129 99.0602 22.2392C99.1447 21.7046 99.3074 21.1854 99.543 20.6981C99.8029 20.157 100.144 19.6586 100.554 19.2202C101.048 18.6993 101.632 18.2714 102.278 17.957C103.103 17.5566 103.977 17.2644 104.877 17.088C106.078 16.8517 107.3 16.7416 108.524 16.7596H109.234C110.429 16.7438 111.622 16.8411 112.799 17.0501C113.677 17.2018 114.535 17.4561 115.354 17.808C115.974 18.0759 116.547 18.4418 117.05 18.8918C117.444 19.2535 117.785 19.6695 118.061 20.1272C118.292 20.5037 118.462 20.9136 118.567 21.3423C118.645 21.6832 118.687 22.0311 118.693 22.3806V22.6333H113.314C113.289 22.5423 113.228 22.3806 113.132 22.128C112.994 21.8359 112.783 21.5838 112.521 21.3954C112.118 21.1008 111.667 20.8785 111.188 20.7385C110.427 20.5242 109.636 20.4279 108.845 20.453C108.076 20.432 107.309 20.53 106.57 20.7436C106.059 20.8934 105.587 21.1519 105.185 21.5015C104.868 21.7861 104.631 22.1495 104.5 22.5549C104.38 22.9316 104.319 23.3244 104.318 23.7196V23.9444C104.321 24.3441 104.389 24.7407 104.518 25.1192C104.663 25.5465 104.907 25.9334 105.23 26.2484C105.628 26.6297 106.104 26.9187 106.626 27.0947C107.352 27.3353 108.114 27.4464 108.878 27.4232C109.453 27.4324 110.027 27.3825 110.592 27.2741C111.005 27.1935 111.409 27.0681 111.795 26.9002C112.081 26.7744 112.346 26.6039 112.579 26.3949C112.751 26.2393 112.903 26.0638 113.034 25.872C113.131 25.7299 113.208 25.5752 113.264 25.4122C113.307 25.2758 113.332 25.1823 113.345 25.1318H118.706V25.4299C118.699 25.786 118.657 26.1406 118.58 26.4884C118.48 26.9275 118.309 27.3473 118.074 27.7314C117.794 28.1996 117.447 28.625 117.045 28.9945C116.539 29.451 115.963 29.8237 115.339 30.0985C114.525 30.4582 113.671 30.7219 112.796 30.8842C111.629 31.0983 110.444 31.1981 109.257 31.1823L108.537 31.2177Z" fill="white"/>
<path d="M125.097 30.9574H119.936V17.0425H125.097V30.9574Z" fill="white"/>
<path d="M141.854 17.0425V20.4454H131.962V22.1835H141.664V25.5991H131.962V27.4888H142.01V30.9675H126.844V17.0425H141.854Z" fill="white"/>
<path d="M81.3444 0L88.1036 8.208V0H92.5146V14.4379H88.0708L80.7807 5.68421V14.4379H76.3672V0H81.3444Z" fill="white"/>
<path d="M93.9766 0H102.237C103.923 0 105.304 0.197052 106.383 0.591157C107.346 0.910442 108.225 1.44134 108.956 2.14484C109.569 2.75222 110.02 3.50232 110.271 4.32758C110.516 5.13949 110.64 5.98306 110.64 6.83116V7.40968C110.638 7.96589 110.591 8.52103 110.498 9.06948C110.406 9.62863 110.24 10.1731 110.005 10.6888C109.76 11.2224 109.436 11.7163 109.045 12.1541C108.605 12.6395 108.083 13.044 107.503 13.3491C106.802 13.7138 106.054 13.9815 105.281 14.1448C104.283 14.3527 103.266 14.4501 102.247 14.4354H93.9766V0ZM98.4204 10.5954H101.722C102.506 10.6252 103.289 10.507 104.03 10.2467C104.523 10.065 104.967 9.76996 105.326 9.38527C105.609 9.07355 105.805 8.69408 105.898 8.28379C105.976 7.93707 106.018 7.5832 106.024 7.22779V7.11158C106.018 6.76033 105.976 6.41062 105.898 6.06821C105.805 5.66045 105.608 5.28363 105.326 4.97432C104.969 4.59054 104.524 4.29851 104.03 4.12295C103.288 3.86921 102.505 3.75445 101.722 3.78442H98.4204V10.5954Z" fill="white"/>
<path d="M124.596 0V3.53684H116.097V5.34063H124.424V8.87747H116.097V10.8379H124.72V14.448H111.717V0H124.596Z" fill="white"/>
<path d="M130.698 14.4379H126.254V0H136.833C138.531 0 139.772 0.323368 140.556 0.970104C141.34 1.61684 141.731 2.53137 141.729 3.71368V3.9259C141.738 4.39223 141.652 4.85554 141.476 5.28758C141.208 5.94231 140.726 6.48716 140.109 6.83369C139.875 6.96534 139.628 7.07285 139.373 7.15453C140.065 7.34349 140.676 7.75555 141.11 8.32674C141.573 8.98496 141.804 9.77867 141.767 10.5827V12.7149C141.757 13.0809 141.78 13.4469 141.835 13.8088C141.871 13.9902 141.92 14.1685 141.984 14.3419V14.4379H137.434C137.379 14.3541 137.342 14.2593 137.326 14.16C137.301 14.0038 137.29 13.8457 137.293 13.6876V12.0126C137.293 11.1916 137.118 10.5701 136.769 10.1533C136.421 9.73642 135.806 9.52926 134.932 9.52926H130.698V14.4379ZM130.698 5.99495H135.799C136.289 5.99495 136.635 5.87621 136.84 5.63874C137.045 5.39435 137.153 5.0833 137.144 4.76463V4.74442C137.151 4.43272 137.046 4.12873 136.848 3.888C136.648 3.65053 136.299 3.53179 135.799 3.53179H130.698V5.99495Z" fill="white"/>
<path d="M58.4041 0H62.8605V6.35874C62.8623 6.80535 62.9097 7.25061 63.0021 7.68758C63.0921 8.13126 63.2756 8.55068 63.5405 8.9179C63.8244 9.3033 64.1973 9.61444 64.6274 9.82484C65.7713 10.2963 67.0553 10.2963 68.1992 9.82484C68.6261 9.61832 68.9952 9.30933 69.2735 8.92547C69.5341 8.55552 69.718 8.13721 69.8144 7.69516C69.9109 7.25876 69.9601 6.81324 69.961 6.36631V0H74.4023V6.78063C74.3979 7.28767 74.3615 7.79392 74.2936 8.29642C74.2143 8.8726 74.0754 9.439 73.8791 9.98653C73.6688 10.5694 73.3878 11.1243 73.0424 11.6387C72.6657 12.1887 72.1971 12.6699 71.6572 13.0611C71.0315 13.5116 70.3341 13.8532 69.5945 14.0716C68.6681 14.3331 67.7082 14.4565 66.7457 14.4379H66.1214C65.1337 14.456 64.1485 14.3309 63.1967 14.0665C62.4488 13.8517 61.7433 13.5099 61.1113 13.056C60.5707 12.6656 60.102 12.1844 59.7261 11.6337C59.381 11.1201 59.1025 10.565 58.897 9.98147C58.705 9.43379 58.572 8.86723 58.5001 8.29137C58.435 7.78866 58.4004 7.28247 58.3965 6.77558L58.4041 0Z" fill="white"/>
</g>
<defs>
<clipPath id="clip0_195_196">
<rect width="142" height="48" fill="white"/>
</clipPath>
</defs>
</svg>
